nohup: ignoring input
ffmpeg version 4.4.2-0ubuntu0.22.04.1 Copyright (c) 2000-2021 the FFmpeg developers
  built with gcc 11 (Ubuntu 11.2.0-19ubuntu1)
  configuration: --prefix=/usr --extra-version=0ubuntu0.22.04.1 --toolchain=hardened --libdir=/usr/lib/x86_64-linux-gnu --incdir=/usr/include/x86_64-linux-gnu --arch=amd64 --enable-gpl --disable-stripping --enable-gnutls --enable-ladspa --enable-libaom --enable-libass --enable-libbluray --enable-libbs2b --enable-libcaca --enable-libcdio --enable-libcodec2 --enable-libdav1d --enable-libflite --enable-libfontconfig --enable-libfreetype --enable-libfribidi --enable-libgme --enable-libgsm --enable-libjack --enable-libmp3lame --enable-libmysofa --enable-libopenjpeg --enable-libopenmpt --enable-libopus --enable-libpulse --enable-librabbitmq --enable-librubberband --enable-libshine --enable-libsnappy --enable-libsoxr --enable-libspeex --enable-libsrt --enable-libssh --enable-libtheora --enable-libtwolame --enable-libvidstab --enable-libvorbis --enable-libvpx --enable-libwebp --enable-libx265 --enable-libxml2 --enable-libxvid --enable-libzimg --enable-libzmq --enable-libzvbi --enable-lv2 --enable-omx --enable-openal --enable-opencl --enable-opengl --enable-sdl2 --enable-pocketsphinx --enable-librsvg --enable-libmfx --enable-libdc1394 --enable-libdrm --enable-libiec61883 --enable-chromaprint --enable-frei0r --enable-libx264 --enable-shared
  libavutil      56. 70.100 / 56. 70.100
  libavcodec     58.134.100 / 58.134.100
  libavformat    58. 76.100 / 58. 76.100
  libavdevice    58. 13.100 / 58. 13.100
  libavfilter     7.110.100 /  7.110.100
  libswscale      5.  9.100 /  5.  9.100
  libswresample   3.  9.100 /  3.  9.100
  libpostproc    55.  9.100 / 55.  9.100
Input #0, rawvideo, from 'pipe:':
  Duration: N/A, start: 0.000000, bitrate: 663552 kb/s
  Stream #0:0: Video: rawvideo (BGR[24] / 0x18524742), bgr24, 1280x720, 663552 kb/s, 30 tbr, 30 tbn, 30 tbc
Stream mapping:
  Stream #0:0 -> #0:0 (rawvideo (native) -> h264 (libx264))
[libx264 @ 0x577126df7640] using cpu capabilities: MMX2 SSE2Fast SSSE3 SSE4.2 AVX FMA3 BMI2 AVX2
[libx264 @ 0x577126df7640] profile High 4:4:4 Predictive, level 3.1, 4:4:4, 8-bit
[libx264 @ 0x577126df7640] 264 - core 163 r3060 5db6aa6 - H.264/MPEG-4 AVC codec - Copyleft 2003-2021 - http://www.videolan.org/x264.html - options: cabac=1 ref=1 deblock=1:0:0 analyse=0x3:0x113 me=hex subme=2 psy=1 psy_rd=1.00:0.00 mixed_ref=0 me_range=16 chroma_me=1 trellis=0 8x8dct=1 cqm=0 deadzone=21,11 fast_pskip=1 chroma_qp_offset=6 threads=18 lookahead_threads=5 sliced_threads=0 nr=0 decimate=1 interlaced=0 bluray_compat=0 constrained_intra=0 bframes=3 b_pyramid=2 b_adapt=1 b_bias=0 direct=1 weightb=1 open_gop=0 weightp=1 keyint=250 keyint_min=25 scenecut=40 intra_refresh=0 rc_lookahead=10 rc=crf mbtree=1 crf=23.0 qcomp=0.60 qpmin=0 qpmax=69 qpstep=4 ip_ratio=1.40 aq=1:1.00
Output #0, rtsp, to 'rtsp://localhost:8554/live':
  Metadata:
    encoder         : Lavf58.76.100
  Stream #0:0: Video: h264, yuv444p(tv, progressive), 1280x720, q=2-31, 30 fps, 90k tbn
    Metadata:
      encoder         : Lavc58.134.100 libx264
    Side data:
      cpb: bitrate max/min/avg: 0/0/0 buffer size: 0 vbv_delay: N/A
frame=    1 fps=0.0 q=0.0 size=N/A time=00:00:00.00 bitrate=N/A speed=   0x    frame=   49 fps=0.0 q=29.0 size=N/A time=00:00:00.46 bitrate=N/A speed=0.93x    frame=  113 fps=112 q=29.0 size=N/A time=00:00:02.60 bitrate=N/A speed=2.59x    frame=  177 fps=117 q=29.0 size=N/A time=00:00:04.73 bitrate=N/A speed=3.13x    frame=  241 fps=119 q=29.0 size=N/A time=00:00:06.86 bitrate=N/A speed= 3.4x    frame=  303 fps=120 q=29.0 size=N/A time=00:00:08.93 bitrate=N/A speed=3.55x    frame=  362 fps=120 q=29.0 size=N/A time=00:00:10.90 bitrate=N/A speed=3.61x    frame=  426 fps=121 q=29.0 size=N/A time=00:00:13.03 bitrate=N/A speed= 3.7x    frame=  488 fps=121 q=29.0 size=N/A time=00:00:15.10 bitrate=N/A speed=3.75x    frame=  552 fps=122 q=29.0 size=N/A time=00:00:17.23 bitrate=N/A speed=3.81x    frame=  617 fps=123 q=29.0 size=N/A time=00:00:19.40 bitrate=N/A speed=3.86x    frame=  682 fps=123 q=29.0 size=N/A time=00:00:21.56 bitrate=N/A speed=3.89x    frame=  745 fps=123 q=29.0 size=N/A time=00:00:23.66 bitrate=N/A speed=3.92x    frame=  779 fps=119 q=29.0 size=N/A time=00:00:24.80 bitrate=N/A speed=3.79x    frame=  810 fps=115 q=29.0 size=N/A time=00:00:25.83 bitrate=N/A speed=3.67x    frame=  845 fps=112 q=29.0 size=N/A time=00:00:27.00 bitrate=N/A speed=3.58x    frame=  879 fps=109 q=29.0 size=N/A time=00:00:28.13 bitrate=N/A speed=3.49x    frame=  915 fps=107 q=29.0 size=N/A time=00:00:29.33 bitrate=N/A speed=3.42x    frame=  950 fps=104 q=29.0 size=N/A time=00:00:30.50 bitrate=N/A speed=3.35x    frame= 1007 fps=105 q=29.0 size=N/A time=00:00:32.40 bitrate=N/A speed=3.38x    frame= 1071 fps=106 q=29.0 size=N/A time=00:00:34.53 bitrate=N/A speed=3.42x    frame= 1114 fps=105 q=29.0 size=N/A time=00:00:35.96 bitrate=N/A speed=3.39x    frame= 1151 fps=104 q=29.0 size=N/A time=00:00:37.20 bitrate=N/A speed=3.35x    frame= 1187 fps=102 q=29.0 size=N/A time=00:00:38.40 bitrate=N/A speed= 3.3x    frame= 1222 fps=101 q=29.0 size=N/A time=00:00:39.56 bitrate=N/A speed=3.26x    frame= 1257 fps= 99 q=29.0 size=N/A time=00:00:40.73 bitrate=N/A speed=3.22x    frame= 1292 fps= 98 q=29.0 size=N/A time=00:00:41.90 bitrate=N/A speed=3.19x    frame= 1322 fps= 97 q=29.0 size=N/A time=00:00:42.90 bitrate=N/A speed=3.14x    frame= 1354 fps= 96 q=29.0 size=N/A time=00:00:43.96 bitrate=N/A speed=3.11x    frame= 1390 fps= 95 q=29.0 size=N/A time=00:00:45.16 bitrate=N/A speed=3.08x    frame= 1442 fps= 95 q=29.0 size=N/A time=00:00:46.90 bitrate=N/A speed=3.09x    frame= 1513 fps= 97 q=29.0 size=N/A time=00:00:49.26 bitrate=N/A speed=3.14x    frame= 1569 fps= 97 q=29.0 size=N/A time=00:00:51.13 bitrate=N/A speed=3.16x    frame= 1604 fps= 96 q=29.0 size=N/A time=00:00:52.30 bitrate=N/A speed=3.13x    frame= 1636 fps= 95 q=29.0 size=N/A time=00:00:53.36 bitrate=N/A speed= 3.1x    frame= 1666 fps= 94 q=29.0 size=N/A time=00:00:54.36 bitrate=N/A speed=3.07x    frame= 1706 fps= 94 q=29.0 size=N/A time=00:00:55.70 bitrate=N/A speed=3.06x    frame= 1774 fps= 95 q=29.0 size=N/A time=00:00:57.96 bitrate=N/A speed= 3.1x    frame= 1843 fps= 96 q=29.0 size=N/A time=00:01:00.26 bitrate=N/A speed=3.13x    frame= 1879 fps= 95 q=29.0 size=N/A time=00:01:01.46 bitrate=N/A speed=3.11x    frame= 1915 fps= 95 q=29.0 size=N/A time=00:01:02.66 bitrate=N/A speed=3.09x    frame= 1950 fps= 94 q=29.0 size=N/A time=00:01:03.83 bitrate=N/A speed=3.07x    frame= 1985 fps= 93 q=29.0 size=N/A time=00:01:05.00 bitrate=N/A speed=3.06x    frame= 2019 fps= 93 q=29.0 size=N/A time=00:01:06.13 bitrate=N/A speed=3.04x    frame= 2056 fps= 92 q=29.0 size=N/A time=00:01:07.36 bitrate=N/A speed=3.02x    frame= 2091 fps= 92 q=29.0 size=N/A time=00:01:08.53 bitrate=N/A speed=3.01x    frame= 2127 fps= 91 q=29.0 size=N/A time=00:01:09.73 bitrate=N/A speed=2.99x    frame= 2156 fps= 91 q=29.0 size=N/A time=00:01:10.70 bitrate=N/A speed=2.97x    frame= 2187 fps= 90 q=29.0 size=N/A time=00:01:11.73 bitrate=N/A speed=2.95x    frame= 2234 fps= 90 q=29.0 size=N/A time=00:01:13.30 bitrate=N/A speed=2.95x    frame= 2301 fps= 91 q=29.0 size=N/A time=00:01:15.53 bitrate=N/A speed=2.98x    frame= 2367 fps= 92 q=29.0 size=N/A time=00:01:17.73 bitrate=N/A speed=3.01x    frame= 2440 fps= 93 q=29.0 size=N/A time=00:01:20.16 bitrate=N/A speed=3.05x    frame= 2500 fps= 93 q=29.0 size=N/A time=00:01:22.16 bitrate=N/A speed=3.06x    frame= 2536 fps= 93 q=29.0 size=N/A time=00:01:23.36 bitrate=N/A speed=3.05x    frame= 2574 fps= 92 q=29.0 size=N/A time=00:01:24.63 bitrate=N/A speed=3.04x    frame= 2612 fps= 92 q=29.0 size=N/A time=00:01:25.90 bitrate=N/A speed=3.03x    frame= 2650 fps= 92 q=29.0 size=N/A time=00:01:27.16 bitrate=N/A speed=3.02x    frame= 2685 fps= 91 q=29.0 size=N/A time=00:01:28.33 bitrate=N/A speed=3.01x    frame= 2723 fps= 91 q=29.0 size=N/A time=00:01:29.60 bitrate=N/A speed=   3x    frame= 2759 fps= 91 q=29.0 size=N/A time=00:01:30.80 bitrate=N/A speed=2.99x    frame= 2794 fps= 90 q=29.0 size=N/A time=00:01:31.96 bitrate=N/A speed=2.98x    frame= 2827 fps= 90 q=29.0 size=N/A time=00:01:33.06 bitrate=N/A speed=2.97x    frame= 2864 fps= 90 q=29.0 size=N/A time=00:01:34.30 bitrate=N/A speed=2.96x    frame= 2899 fps= 89 q=29.0 size=N/A time=00:01:35.46 bitrate=N/A speed=2.95x    frame= 2932 fps= 89 q=29.0 size=N/A time=00:01:36.56 bitrate=N/A speed=2.93x    frame= 2962 fps= 89 q=29.0 size=N/A time=00:01:37.56 bitrate=N/A speed=2.92x    frame= 2996 fps= 88 q=29.0 size=N/A time=00:01:38.70 bitrate=N/A speed=2.91x    frame= 3030 fps= 88 q=29.0 size=N/A time=00:01:39.83 bitrate=N/A speed= 2.9x    frame= 3065 fps= 88 q=29.0 size=N/A time=00:01:41.00 bitrate=N/A speed=2.89x    frame= 3098 fps= 87 q=29.0 size=N/A time=00:01:42.10 bitrate=N/A speed=2.88x    frame= 3132 fps= 87 q=29.0 size=N/A time=00:01:43.23 bitrate=N/A speed=2.87x    frame= 3168 fps= 87 q=29.0 size=N/A time=00:01:44.43 bitrate=N/A speed=2.86x    frame= 3204 fps= 87 q=29.0 size=N/A time=00:01:45.63 bitrate=N/A speed=2.86x    frame= 3239 fps= 86 q=29.0 size=N/A time=00:01:46.80 bitrate=N/A speed=2.85x    frame= 3270 fps= 86 q=29.0 size=N/A time=00:01:47.83 bitrate=N/A speed=2.84x    frame= 3304 fps= 86 q=29.0 size=N/A time=00:01:48.96 bitrate=N/A speed=2.83x    frame= 3354 fps= 86 q=29.0 size=N/A time=00:01:50.63 bitrate=N/A speed=2.84x    frame= 3419 fps= 87 q=29.0 size=N/A time=00:01:52.80 bitrate=N/A speed=2.86x    frame= 3477 fps= 87 q=29.0 size=N/A time=00:01:54.73 bitrate=N/A speed=2.87x    frame= 3535 fps= 87 q=29.0 size=N/A time=00:01:56.66 bitrate=N/A speed=2.88x    frame= 3594 fps= 88 q=29.0 size=N/A time=00:01:58.63 bitrate=N/A speed=2.89x    frame= 3652 fps= 88 q=29.0 size=N/A time=00:02:00.56 bitrate=N/A speed= 2.9x    frame= 3713 fps= 88 q=29.0 size=N/A time=00:02:02.60 bitrate=N/A speed=2.92x    frame= 3783 fps= 89 q=29.0 size=N/A time=00:02:04.93 bitrate=N/A speed=2.94x    frame= 3832 fps= 89 q=29.0 size=N/A time=00:02:06.56 bitrate=N/A speed=2.94x    frame= 3869 fps= 89 q=29.0 size=N/A time=00:02:07.80 bitrate=N/A speed=2.94x    frame= 3906 fps= 89 q=29.0 size=N/A time=00:02:09.03 bitrate=N/A speed=2.93x    frame= 3944 fps= 89 q=29.0 size=N/A time=00:02:10.30 bitrate=N/A speed=2.93x    frame= 3982 fps= 88 q=29.0 size=N/A time=00:02:11.56 bitrate=N/A speed=2.92x    frame= 4021 fps= 88 q=29.0 size=N/A time=00:02:12.86 bitrate=N/A speed=2.92x    frame= 4060 fps= 88 q=29.0 size=N/A time=00:02:14.16 bitrate=N/A speed=2.91x    frame= 4099 fps= 88 q=29.0 size=N/A time=00:02:15.46 bitrate=N/A speed=2.91x    frame= 4140 fps= 88 q=29.0 size=N/A time=00:02:16.83 bitrate=N/A speed=2.91x    frame= 4180 fps= 88 q=29.0 size=N/A time=00:02:18.16 bitrate=N/A speed= 2.9x    frame= 4220 fps= 88 q=29.0 size=N/A time=00:02:19.50 bitrate=N/A speed= 2.9x    frame= 4257 fps= 88 q=29.0 size=N/A time=00:02:20.73 bitrate=N/A speed= 2.9x    frame= 4298 fps= 88 q=29.0 size=N/A time=00:02:22.10 bitrate=N/A speed=2.89x    frame= 4338 fps= 87 q=29.0 size=N/A time=00:02:23.43 bitrate=N/A speed=2.89x    frame= 4377 fps= 87 q=29.0 size=N/A time=00:02:24.73 bitrate=N/A speed=2.89x    frame= 4412 fps= 87 q=29.0 size=N/A time=00:02:25.90 bitrate=N/A speed=2.88x    frame= 4447 fps= 87 q=29.0 size=N/A time=00:02:27.06 bitrate=N/A speed=2.88x    frame= 4482 fps= 87 q=29.0 size=N/A time=00:02:28.23 bitrate=N/A speed=2.87x    frame= 4513 fps= 87 q=29.0 size=N/A time=00:02:29.26 bitrate=N/A speed=2.86x    frame= 4548 fps= 86 q=29.0 size=N/A time=00:02:30.43 bitrate=N/A speed=2.86x    frame= 4583 fps= 86 q=29.0 size=N/A time=00:02:31.60 bitrate=N/A speed=2.85x    frame= 4614 fps= 86 q=29.0 size=N/A time=00:02:32.63 bitrate=N/A speed=2.84x    frame= 4641 fps= 86 q=29.0 size=N/A time=00:02:33.53 bitrate=N/A speed=2.83x    frame= 4684 fps= 86 q=29.0 size=N/A time=00:02:34.96 bitrate=N/A speed=2.83x    frame= 4747 fps= 86 q=29.0 size=N/A time=00:02:37.06 bitrate=N/A speed=2.85x    frame= 4812 fps= 86 q=29.0 size=N/A time=00:02:39.23 bitrate=N/A speed=2.86x    frame= 4876 fps= 87 q=29.0 size=N/A time=00:02:41.36 bitrate=N/A speed=2.87x    frame= 4931 fps= 87 q=29.0 size=N/A time=00:02:43.20 bitrate=N/A speed=2.88x    frame= 4967 fps= 87 q=29.0 size=N/A time=00:02:44.40 bitrate=N/A speed=2.87x    frame= 5003 fps= 87 q=29.0 size=N/A time=00:02:45.60 bitrate=N/A speed=2.87x    frame= 5034 fps= 87 q=29.0 size=N/A time=00:02:46.63 bitrate=N/A speed=2.86x    frame= 5060 fps= 86 q=29.0 size=N/A time=00:02:47.50 bitrate=N/A speed=2.85x    frame= 5112 fps= 86 q=29.0 size=N/A time=00:02:49.23 bitrate=N/A speed=2.86x    frame= 5183 fps= 87 q=29.0 size=N/A time=00:02:51.60 bitrate=N/A speed=2.87x    frame= 5254 fps= 87 q=29.0 size=N/A time=00:02:53.96 bitrate=N/A speed=2.89x    frame= 5325 fps= 88 q=29.0 size=N/A time=00:02:56.33 bitrate=N/A speed= 2.9x    frame= 5368 fps= 88 q=29.0 size=N/A time=00:02:57.76 bitrate=N/A speed= 2.9x    frame= 5405 fps= 88 q=29.0 size=N/A time=00:02:59.00 bitrate=N/A speed= 2.9x    frame= 5439 fps= 87 q=29.0 size=N/A time=00:03:00.13 bitrate=N/A speed=2.89x    frame= 5469 fps= 87 q=29.0 size=N/A time=00:03:01.13 bitrate=N/A speed=2.88x    frame= 5509 fps= 87 q=29.0 size=N/A time=00:03:02.46 bitrate=N/A speed=2.88x    frame= 5579 fps= 87 q=29.0 size=N/A time=00:03:04.80 bitrate=N/A speed= 2.9x    frame= 5632 fps= 88 q=29.0 size=N/A time=00:03:06.56 bitrate=N/A speed= 2.9x    frame= 5668 fps= 87 q=29.0 size=N/A time=00:03:07.76 bitrate=N/A speed= 2.9x    frame= 5703 fps= 87 q=29.0 size=N/A time=00:03:08.93 bitrate=N/A speed=2.89x    frame= 5739 fps= 87 q=29.0 size=N/A time=00:03:10.13 bitrate=N/A speed=2.89x    frame= 5775 fps= 87 q=29.0 size=N/A time=00:03:11.33 bitrate=N/A speed=2.88x    frame= 5805 fps= 87 q=29.0 size=N/A time=00:03:12.33 bitrate=N/A speed=2.88x    frame= 5837 fps= 87 q=29.0 size=N/A time=00:03:13.40 bitrate=N/A speed=2.87x    frame= 5908 fps= 87 q=29.0 size=N/A time=00:03:15.76 bitrate=N/A speed=2.88x    frame= 5976 fps= 87 q=29.0 size=N/A time=00:03:18.03 bitrate=N/A speed= 2.9x    frame= 6013 fps= 87 q=29.0 size=N/A time=00:03:19.26 bitrate=N/A speed=2.89x    frame= 6050 fps= 87 q=29.0 size=N/A time=00:03:20.50 bitrate=N/A speed=2.89x    frame= 6088 fps= 87 q=29.0 size=N/A time=00:03:21.76 bitrate=N/A speed=2.89x    frame= 6126 fps= 87 q=29.0 size=N/A time=00:03:23.03 bitrate=N/A speed=2.88x    frame= 6158 fps= 87 q=29.0 size=N/A time=00:03:24.10 bitrate=N/A speed=2.88x    frame= 6188 fps= 87 q=29.0 size=N/A time=00:03:25.10 bitrate=N/A speed=2.87x    frame= 6243 fps= 87 q=29.0 size=N/A time=00:03:26.93 bitrate=N/A speed=2.88x    frame= 6314 fps= 87 q=29.0 size=N/A time=00:03:29.30 bitrate=N/A speed=2.89x    frame= 6365 fps= 87 q=29.0 size=N/A time=00:03:31.00 bitrate=N/A speed=2.89x    frame= 6402 fps= 87 q=29.0 size=N/A time=00:03:32.23 bitrate=N/A speed=2.89x    frame= 6435 fps= 87 q=29.0 size=N/A time=00:03:33.33 bitrate=N/A speed=2.89x    frame= 6471 fps= 87 q=29.0 size=N/A time=00:03:34.53 bitrate=N/A speed=2.88x    frame= 6502 fps= 87 q=29.0 size=N/A time=00:03:35.56 bitrate=N/A speed=2.88x    frame= 6531 fps= 87 q=29.0 size=N/A time=00:03:36.53 bitrate=N/A speed=2.87x    frame= 6568 fps= 86 q=29.0 size=N/A time=00:03:37.76 bitrate=N/A speed=2.87x    frame= 6641 fps= 87 q=29.0 size=N/A time=00:03:40.20 bitrate=N/A speed=2.88x    frame= 6711 fps= 87 q=29.0 size=N/A time=00:03:42.53 bitrate=N/A speed=2.89x    frame= 6747 fps= 87 q=29.0 size=N/A time=00:03:43.73 bitrate=N/A speed=2.89x    frame= 6783 fps= 87 q=29.0 size=N/A time=00:03:44.93 bitrate=N/A speed=2.88x    frame= 6819 fps= 87 q=29.0 size=N/A time=00:03:46.13 bitrate=N/A speed=2.88x    frame= 6853 fps= 87 q=29.0 size=N/A time=00:03:47.26 bitrate=N/A speed=2.88x    frame= 6883 fps= 87 q=29.0 size=N/A time=00:03:48.26 bitrate=N/A speed=2.87x    frame= 6911 fps= 86 q=29.0 size=N/A time=00:03:49.20 bitrate=N/A speed=2.86x    frame= 6967 fps= 87 q=29.0 size=N/A time=00:03:51.06 bitrate=N/A speed=2.87x    frame= 7038 fps= 87 q=29.0 size=N/A time=00:03:53.43 bitrate=N/A speed=2.88x    frame= 7083 fps= 87 q=29.0 size=N/A time=00:03:54.93 bitrate=N/A speed=2.88x    frame= 7118 fps= 87 q=29.0 size=N/A time=00:03:56.10 bitrate=N/A speed=2.88x    frame= 7153 fps= 87 q=29.0 size=N/A time=00:03:57.26 bitrate=N/A speed=2.87x    frame= 7188 fps= 87 q=29.0 size=N/A time=00:03:58.43 bitrate=N/A speed=2.87x    frame= 7228 fps= 86 q=29.0 size=N/A time=00:03:59.76 bitrate=N/A speed=2.87x    frame= 7286 fps= 87 q=29.0 size=N/A time=00:04:01.70 bitrate=N/A speed=2.88x    frame= 7339 fps= 87 q=29.0 size=N/A time=00:04:03.46 bitrate=N/A speed=2.88x    frame= 7391 fps= 87 q=29.0 size=N/A time=00:04:05.20 bitrate=N/A speed=2.88x    frame= 7439 fps= 87 q=29.0 size=N/A time=00:04:06.80 bitrate=N/A speed=2.88x    frame= 7475 fps= 87 q=29.0 size=N/A time=00:04:08.00 bitrate=N/A speed=2.88x    frame= 7512 fps= 87 q=29.0 size=N/A time=00:04:09.23 bitrate=N/A speed=2.88x    frame= 7548 fps= 87 q=29.0 size=N/A time=00:04:10.43 bitrate=N/A speed=2.88x    frame= 7578 fps= 87 q=29.0 size=N/A time=00:04:11.43 bitrate=N/A speed=2.87x    frame= 7634 fps= 87 q=29.0 size=N/A time=00:04:13.30 bitrate=N/A speed=2.87x    frame= 7690 fps= 87 q=29.0 size=N/A time=00:04:15.16 bitrate=N/A speed=2.88x    frame= 7739 fps= 87 q=29.0 size=N/A time=00:04:16.80 bitrate=N/A speed=2.88x    frame= 7788 fps= 87 q=29.0 size=N/A time=00:04:18.43 bitrate=N/A speed=2.88x    frame= 7825 fps= 87 q=29.0 size=N/A time=00:04:19.66 bitrate=N/A speed=2.88x    frame= 7857 fps= 87 q=29.0 size=N/A time=00:04:20.73 bitrate=N/A speed=2.88x    frame= 7890 fps= 87 q=29.0 size=N/A time=00:04:21.83 bitrate=N/A speed=2.87x    frame= 7937 fps= 87 q=29.0 size=N/A time=00:04:23.40 bitrate=N/A speed=2.87x    frame= 7970 fps= 86 q=29.0 size=N/A time=00:04:24.50 bitrate=N/A speed=2.87x    frame= 8007 fps= 86 q=29.0 size=N/A time=00:04:25.73 bitrate=N/A speed=2.87x    frame= 8041 fps= 86 q=29.0 size=N/A time=00:04:26.86 bitrate=N/A speed=2.86x    frame= 8078 fps= 86 q=29.0 size=N/A time=00:04:28.10 bitrate=N/A speed=2.86x    frame= 8114 fps= 86 q=29.0 size=N/A time=00:04:29.30 bitrate=N/A speed=2.86x    frame= 8150 fps= 86 q=29.0 size=N/A time=00:04:30.50 bitrate=N/A speed=2.86x    frame= 8187 fps= 86 q=29.0 size=N/A time=00:04:31.73 bitrate=N/A speed=2.85x    frame= 8221 fps= 86 q=29.0 size=N/A time=00:04:32.86 bitrate=N/A speed=2.85x    frame= 8254 fps= 86 q=29.0 size=N/A time=00:04:33.96 bitrate=N/A speed=2.85x    frame= 8291 fps= 86 q=29.0 size=N/A time=00:04:35.20 bitrate=N/A speed=2.85x    frame= 8328 fps= 86 q=29.0 size=N/A time=00:04:36.43 bitrate=N/A speed=2.84x    frame= 8372 fps= 86 q=29.0 size=N/A time=00:04:37.90 bitrate=N/A speed=2.84x    frame= 8437 fps= 86 q=29.0 size=N/A time=00:04:40.06 bitrate=N/A speed=2.85x    frame= 8492 fps= 86 q=29.0 size=N/A time=00:04:41.90 bitrate=N/A speed=2.85x    frame= 8527 fps= 86 q=29.0 size=N/A time=00:04:43.06 bitrate=N/A speed=2.85x    frame= 8559 fps= 86 q=29.0 size=N/A time=00:04:44.13 bitrate=N/A speed=2.85x    frame= 8588 fps= 86 q=29.0 size=N/A time=00:04:45.10 bitrate=N/A speed=2.84x    frame= 8617 fps= 85 q=29.0 size=N/A time=00:04:46.06 bitrate=N/A speed=2.84x    frame= 8653 fps= 85 q=29.0 size=N/A time=00:04:47.26 bitrate=N/A speed=2.84x    frame= 8686 fps= 85 q=29.0 size=N/A time=00:04:48.36 bitrate=N/A speed=2.83x    frame= 8752 fps= 86 q=29.0 size=N/A time=00:04:50.56 bitrate=N/A speed=2.84x    frame= 8817 fps= 86 q=29.0 size=N/A time=00:04:52.73 bitrate=N/A speed=2.85x    frame= 8854 fps= 86 q=29.0 size=N/A time=00:04:53.96 bitrate=N/A speed=2.85x    frame= 8891 fps= 86 q=29.0 size=N/A time=00:04:55.20 bitrate=N/A speed=2.84x    frame= 8940 fps= 86 q=29.0 size=N/A time=00:04:56.83 bitrate=N/A speed=2.85x    frame= 9000 fps= 86 q=29.0 size=N/A time=00:04:58.83 bitrate=N/A speed=2.85x    frame= 9039 fps= 86 q=29.0 size=N/A time=00:05:00.13 bitrate=N/A speed=2.85x    frame= 9076 fps= 86 q=29.0 size=N/A time=00:05:01.36 bitrate=N/A speed=2.85x    frame= 9111 fps= 86 q=29.0 size=N/A time=00:05:02.53 bitrate=N/A speed=2.84x    frame= 9148 fps= 86 q=29.0 size=N/A time=00:05:03.76 bitrate=N/A speed=2.84x    frame= 9183 fps= 86 q=29.0 size=N/A time=00:05:04.93 bitrate=N/A speed=2.84x    frame= 9218 fps= 85 q=29.0 size=N/A time=00:05:06.10 bitrate=N/A speed=2.84x    frame= 9248 fps= 85 q=29.0 size=N/A time=00:05:07.10 bitrate=N/A speed=2.83x    frame= 9278 fps= 85 q=29.0 size=N/A time=00:05:08.10 bitrate=N/A speed=2.83x    frame= 9312 fps= 85 q=29.0 size=N/A time=00:05:09.23 bitrate=N/A speed=2.83x    frame= 9348 fps= 85 q=29.0 size=N/A time=00:05:10.43 bitrate=N/A speed=2.82x    frame= 9382 fps= 85 q=29.0 size=N/A time=00:05:11.56 bitrate=N/A speed=2.82x    frame= 9417 fps= 85 q=29.0 size=N/A time=00:05:12.73 bitrate=N/A speed=2.82x    frame= 9451 fps= 85 q=29.0 size=N/A time=00:05:13.86 bitrate=N/A speed=2.82x    frame= 9484 fps= 85 q=29.0 size=N/A time=00:05:14.96 bitrate=N/A speed=2.81x    frame= 9520 fps= 85 q=29.0 size=N/A time=00:05:16.16 bitrate=N/A speed=2.81x    frame= 9580 fps= 85 q=29.0 size=N/A time=00:05:18.16 bitrate=N/A speed=2.82x    frame= 9635 fps= 85 q=29.0 size=N/A time=00:05:20.00 bitrate=N/A speed=2.82x    frame= 9670 fps= 85 q=29.0 size=N/A time=00:05:21.16 bitrate=N/A speed=2.82x    frame= 9706 fps= 85 q=29.0 size=N/A time=00:05:22.36 bitrate=N/A speed=2.82x    frame= 9740 fps= 85 q=29.0 size=N/A time=00:05:23.50 bitrate=N/A speed=2.81x    frame= 9777 fps= 85 q=29.0 size=N/A time=00:05:24.73 bitrate=N/A speed=2.81x    frame= 9812 fps= 85 q=29.0 size=N/A time=00:05:25.90 bitrate=N/A speed=2.81x    frame= 9845 fps= 85 q=29.0 size=N/A time=00:05:27.00 bitrate=N/A speed=2.81x    frame= 9899 fps= 85 q=29.0 size=N/A time=00:05:28.80 bitrate=N/A speed=2.81x    frame= 9965 fps= 85 q=29.0 size=N/A time=00:05:31.00 bitrate=N/A speed=2.82x    frame=10000 fps= 85 q=29.0 size=N/A time=00:05:32.16 bitrate=N/A speed=2.81x    frame=10036 fps= 85 q=29.0 size=N/A time=00:05:33.36 bitrate=N/A speed=2.81x    frame=10095 fps= 85 q=29.0 size=N/A time=00:05:35.33 bitrate=N/A speed=2.82x    frame=10162 fps= 85 q=29.0 size=N/A time=00:05:37.56 bitrate=N/A speed=2.82x    frame=10201 fps= 85 q=29.0 size=N/A time=00:05:38.86 bitrate=N/A speed=2.82x    frame=10234 fps= 85 q=29.0 size=N/A time=00:05:39.96 bitrate=N/A speed=2.82x    frame=10264 fps= 85 q=29.0 size=N/A time=00:05:40.96 bitrate=N/A speed=2.82x    frame=10296 fps= 85 q=29.0 size=N/A time=00:05:42.03 bitrate=N/A speed=2.81x    frame=10332 fps= 85 q=29.0 size=N/A time=00:05:43.23 bitrate=N/A speed=2.81x    frame=10369 fps= 85 q=29.0 size=N/A time=00:05:44.46 bitrate=N/A speed=2.81x    frame=10406 fps= 85 q=29.0 size=N/A time=00:05:45.70 bitrate=N/A speed=2.81x    frame=10442 fps= 84 q=29.0 size=N/A time=00:05:46.90 bitrate=N/A speed=2.81x    frame=10478 fps= 84 q=29.0 size=N/A time=00:05:48.10 bitrate=N/A speed= 2.8x    frame=10514 fps= 84 q=29.0 size=N/A time=00:05:49.30 bitrate=N/A speed= 2.8x    frame=10547 fps= 84 q=29.0 size=N/A time=00:05:50.40 bitrate=N/A speed= 2.8x    frame=10579 fps= 84 q=29.0 size=N/A time=00:05:51.46 bitrate=N/A speed= 2.8x    frame=10618 fps= 84 q=29.0 size=N/A time=00:05:52.76 bitrate=N/A speed= 2.8x    frame=10654 fps= 84 q=29.0 size=N/A time=00:05:53.96 bitrate=N/A speed=2.79x    frame=10699 fps= 84 q=29.0 size=N/A time=00:05:55.46 bitrate=N/A speed= 2.8x    frame=10764 fps= 84 q=29.0 size=N/A time=00:05:57.63 bitrate=N/A speed= 2.8x    frame=10821 fps= 84 q=29.0 size=N/A time=00:05:59.53 bitrate=N/A speed=2.81x    frame=10856 fps= 84 q=29.0 size=N/A time=00:06:00.70 bitrate=N/A speed= 2.8x    frame=10890 fps= 84 q=29.0 size=N/A time=00:06:01.83 bitrate=N/A speed= 2.8x    frame=10921 fps= 84 q=29.0 size=N/A time=00:06:02.86 bitrate=N/A speed= 2.8x    frame=10956 fps= 84 q=29.0 size=N/A time=00:06:04.03 bitrate=N/A speed= 2.8x    frame=10993 fps= 84 q=29.0 size=N/A time=00:06:05.26 bitrate=N/A speed=2.79x    frame=11028 fps= 84 q=29.0 size=N/A time=00:06:06.43 bitrate=N/A speed=2.79x    frame=11091 fps= 84 q=29.0 size=N/A time=00:06:08.53 bitrate=N/A speed= 2.8x    frame=11154 fps= 84 q=29.0 size=N/A time=00:06:10.63 bitrate=N/A speed= 2.8x    frame=11192 fps= 84 q=29.0 size=N/A time=00:06:11.90 bitrate=N/A speed= 2.8x    frame=11223 fps= 84 q=29.0 size=N/A time=00:06:12.93 bitrate=N/A speed= 2.8x    frame=11273 fps= 84 q=29.0 size=N/A time=00:06:14.60 bitrate=N/A speed= 2.8x    frame=11339 fps= 84 q=29.0 size=N/A time=00:06:16.80 bitrate=N/A speed=2.81x    frame=11380 fps= 84 q=29.0 size=N/A time=00:06:18.16 bitrate=N/A speed=2.81x    frame=11415 fps= 84 q=29.0 size=N/A time=00:06:19.33 bitrate=N/A speed= 2.8x    frame=11452 fps= 84 q=29.0 size=N/A time=00:06:20.56 bitrate=N/A speed= 2.8x    frame=11486 fps= 84 q=29.0 size=N/A time=00:06:21.70 bitrate=N/A speed= 2.8x    frame=11521 fps= 84 q=29.0 size=N/A time=00:06:22.86 bitrate=N/A speed= 2.8x    frame=11553 fps= 84 q=29.0 size=N/A time=00:06:23.93 bitrate=N/A speed= 2.8x    frame=11586 fps= 84 q=29.0 size=N/A time=00:06:25.03 bitrate=N/A speed=2.79x    frame=11618 fps= 84 q=29.0 size=N/A time=00:06:26.10 bitrate=N/A speed=2.79x    frame=11656 fps= 84 q=29.0 size=N/A time=00:06:27.36 bitrate=N/A speed=2.79x    frame=11691 fps= 84 q=29.0 size=N/A time=00:06:28.53 bitrate=N/A speed=2.79x    frame=11726 fps= 84 q=29.0 size=N/A time=00:06:29.70 bitrate=N/A speed=2.79x    frame=11762 fps= 84 q=29.0 size=N/A time=00:06:30.90 bitrate=N/A speed=2.79x    frame=11797 fps= 84 q=29.0 size=N/A time=00:06:32.06 bitrate=N/A speed=2.78x    frame=11833 fps= 84 q=29.0 size=N/A time=00:06:33.26 bitrate=N/A speed=2.78x    frame=11863 fps= 84 q=29.0 size=N/A time=00:06:34.26 bitrate=N/A speed=2.78x    frame=11899 fps= 84 q=29.0 size=N/A time=00:06:35.46 bitrate=N/A speed=2.78x    frame=11934 fps= 84 q=29.0 size=N/A time=00:06:36.63 bitrate=N/A speed=2.78x    frame=11970 fps= 83 q=29.0 size=N/A time=00:06:37.83 bitrate=N/A speed=2.77x    frame=12009 fps= 83 q=29.0 size=N/A time=00:06:39.13 bitrate=N/A speed=2.77x    frame=12073 fps= 84 q=29.0 size=N/A time=00:06:41.26 bitrate=N/A speed=2.78x    frame=12135 fps= 84 q=29.0 size=N/A time=00:06:43.33 bitrate=N/A speed=2.78x    frame=12169 fps= 84 q=29.0 size=N/A time=00:06:44.46 bitrate=N/A speed=2.78x    frame=12201 fps= 84 q=29.0 size=N/A time=00:06:45.53 bitrate=N/A speed=2.78x    frame=12239 fps= 84 q=29.0 size=N/A time=00:06:46.80 bitrate=N/A speed=2.78x    frame=12274 fps= 84 q=29.0 size=N/A time=00:06:47.96 bitrate=N/A speed=2.78x    frame=12310 fps= 83 q=29.0 size=N/A time=00:06:49.16 bitrate=N/A speed=2.78x    frame=12347 fps= 83 q=29.0 size=N/A time=00:06:50.40 bitrate=N/A speed=2.77x    frame=12407 fps= 84 q=29.0 size=N/A time=00:06:52.40 bitrate=N/A speed=2.78x    frame=12472 fps= 84 q=29.0 size=N/A time=00:06:54.56 bitrate=N/A speed=2.78x    frame=12536 fps= 84 q=29.0 size=N/A time=00:06:56.70 bitrate=N/A speed=2.79x    frame=12594 fps= 84 q=29.0 size=N/A time=00:06:58.63 bitrate=N/A speed=2.79x    frame=12635 fps= 84 q=29.0 size=N/A time=00:07:00.00 bitrate=N/A speed=2.79x    frame=12670 fps= 84 q=29.0 size=N/A time=00:07:01.16 bitrate=N/A speed=2.79x    frame=12701 fps= 84 q=29.0 size=N/A time=00:07:02.20 bitrate=N/A speed=2.79x    frame=12737 fps= 84 q=29.0 size=N/A time=00:07:03.40 bitrate=N/A speed=2.79x    frame=12771 fps= 84 q=29.0 size=N/A time=00:07:04.53 bitrate=N/A speed=2.78x    frame=12805 fps= 84 q=29.0 size=N/A time=00:07:05.66 bitrate=N/A speed=2.78x    frame=12839 fps= 84 q=29.0 size=N/A time=00:07:06.80 bitrate=N/A speed=2.78x    frame=12871 fps= 84 q=29.0 size=N/A time=00:07:07.86 bitrate=N/A speed=2.78x    frame=12904 fps= 84 q=29.0 size=N/A time=00:07:08.96 bitrate=N/A speed=2.78x    frame=12939 fps= 83 q=29.0 size=N/A time=00:07:10.13 bitrate=N/A speed=2.78x    frame=12974 fps= 83 q=29.0 size=N/A time=00:07:11.30 bitrate=N/A speed=2.77x    frame=13011 fps= 83 q=29.0 size=N/A time=00:07:12.53 bitrate=N/A speed=2.77x    frame=13047 fps= 83 q=29.0 size=N/A time=00:07:13.73 bitrate=N/A speed=2.77x    frame=13084 fps= 83 q=29.0 size=N/A time=00:07:14.96 bitrate=N/A speed=2.77x    frame=13120 fps= 83 q=29.0 size=N/A time=00:07:16.16 bitrate=N/A speed=2.77x    frame=13153 fps= 83 q=29.0 size=N/A time=00:07:17.26 bitrate=N/A speed=2.77x    frame=13183 fps= 83 q=29.0 size=N/A time=00:07:18.26 bitrate=N/A speed=2.76x    frame=13246 fps= 83 q=29.0 size=N/A time=00:07:20.36 bitrate=N/A speed=2.77x    frame=13310 fps= 83 q=29.0 size=N/A time=00:07:22.50 bitrate=N/A speed=2.77x    frame=13343 fps= 83 q=29.0 size=N/A time=00:07:23.60 bitrate=N/A speed=2.77x    frame=13378 fps= 83 q=29.0 size=N/A time=00:07:24.76 bitrate=N/A speed=2.77x    frame=13415 fps= 83 q=29.0 size=N/A time=00:07:26.00 bitrate=N/A speed=2.77x    frame=13452 fps= 83 q=29.0 size=N/A time=00:07:27.23 bitrate=N/A speed=2.77x    frame=13485 fps= 83 q=29.0 size=N/A time=00:07:28.33 bitrate=N/A speed=2.77x    frame=13518 fps= 83 q=29.0 size=N/A time=00:07:29.43 bitrate=N/A speed=2.76x    frame=13572 fps= 83 q=29.0 size=N/A time=00:07:31.23 bitrate=N/A speed=2.77x    frame=13636 fps= 83 q=29.0 size=N/A time=00:07:33.36 bitrate=N/A speed=2.77x    frame=13699 fps= 83 q=29.0 size=N/A time=00:07:35.46 bitrate=N/A speed=2.78x    frame=13763 fps= 84 q=29.0 size=N/A time=00:07:37.60 bitrate=N/A speed=2.78x    frame=13809 fps= 84 q=29.0 size=N/A time=00:07:39.13 bitrate=N/A speed=2.78x    frame=13845 fps= 84 q=29.0 size=N/A time=00:07:40.33 bitrate=N/A speed=2.78x    frame=13883 fps= 84 q=29.0 size=N/A time=00:07:41.60 bitrate=N/A speed=2.78x    frame=13913 fps= 83 q=29.0 size=N/A time=00:07:42.60 bitrate=N/A speed=2.78x    frame=13947 fps= 83 q=29.0 size=N/A time=00:07:43.73 bitrate=N/A speed=2.77x    frame=13981 fps= 83 q=29.0 size=N/A time=00:07:44.86 bitrate=N/A speed=2.77x    frame=14017 fps= 83 q=29.0 size=N/A time=00:07:46.06 bitrate=N/A speed=2.77x    frame=14052 fps= 83 q=29.0 size=N/A time=00:07:47.23 bitrate=N/A speed=2.77x    frame=14087 fps= 83 q=29.0 size=N/A time=00:07:48.40 bitrate=N/A speed=2.77x    frame=14125 fps= 83 q=29.0 size=N/A time=00:07:49.66 bitrate=N/A speed=2.77x    frame=14158 fps= 83 q=29.0 size=N/A time=00:07:50.76 bitrate=N/A speed=2.77x    frame=14180 fps= 83 q=29.0 size=N/A time=00:07:51.50 bitrate=N/A speed=2.76x    frame=14206 fps= 83 q=29.0 size=N/A time=00:07:52.36 bitrate=N/A speed=2.76x    frame=14265 fps= 83 q=29.0 size=N/A time=00:07:54.33 bitrate=N/A speed=2.76x    frame=14334 fps= 83 q=29.0 size=N/A time=00:07:56.63 bitrate=N/A speed=2.77x    frame=14373 fps= 83 q=29.0 size=N/A time=00:07:57.93 bitrate=N/A speed=2.77x    frame=14406 fps= 83 q=29.0 size=N/A time=00:07:59.03 bitrate=N/A speed=2.77x    frame=14441 fps= 83 q=29.0 size=N/A time=00:08:00.20 bitrate=N/A speed=2.76x    frame=14475 fps= 83 q=29.0 size=N/A time=00:08:01.33 bitrate=N/A speed=2.76x    frame=14506 fps= 83 q=29.0 size=N/A time=00:08:02.36 bitrate=N/A speed=2.76x    frame=14533 fps= 83 q=29.0 size=N/A time=00:08:03.26 bitrate=N/A speed=2.76x    frame=14566 fps= 83 q=29.0 size=N/A time=00:08:04.36 bitrate=N/A speed=2.76x    frame=14602 fps= 83 q=29.0 size=N/A time=00:08:05.56 bitrate=N/A speed=2.75x    frame=14638 fps= 83 q=29.0 size=N/A time=00:08:06.76 bitrate=N/A speed=2.75x    frame=14671 fps= 83 q=29.0 size=N/A time=00:08:07.86 bitrate=N/A speed=2.75x    frame=14703 fps= 83 q=29.0 size=N/A time=00:08:08.93 bitrate=N/A speed=2.75x    frame=14734 fps= 83 q=29.0 size=N/A time=00:08:09.96 bitrate=N/A speed=2.75x    frame=14770 fps= 83 q=29.0 size=N/A time=00:08:11.16 bitrate=N/A speed=2.75x    frame=14834 fps= 83 q=29.0 size=N/A time=00:08:13.30 bitrate=N/A speed=2.75x    frame=14884 fps= 83 q=29.0 size=N/A time=00:08:14.96 bitrate=N/A speed=2.75x    frame=14926 fps= 83 q=29.0 size=N/A time=00:08:16.36 bitrate=N/A speed=2.75x    frame=14969 fps= 83 q=29.0 size=N/A time=00:08:17.80 bitrate=N/A speed=2.75x    frame=14999 fps= 83 q=29.0 size=N/A time=00:08:18.80 bitrate=N/A speed=2.75x    frame=15031 fps= 83 q=29.0 size=N/A time=00:08:19.86 bitrate=N/A speed=2.75x    frame=15065 fps= 83 q=29.0 size=N/A time=00:08:21.00 bitrate=N/A speed=2.75x    frame=15098 fps= 83 q=29.0 size=N/A time=00:08:22.10 bitrate=N/A speed=2.75x    frame=15130 fps= 82 q=29.0 size=N/A time=00:08:23.16 bitrate=N/A speed=2.74x    frame=15156 fps= 82 q=29.0 size=N/A time=00:08:24.03 bitrate=N/A speed=2.74x    frame=15189 fps= 82 q=29.0 size=N/A time=00:08:25.13 bitrate=N/A speed=2.74x    frame=15220 fps= 82 q=29.0 size=N/A time=00:08:26.16 bitrate=N/A speed=2.74x    frame=15271 fps= 82 q=29.0 size=N/A time=00:08:27.86 bitrate=N/A speed=2.74x    frame=15326 fps= 82 q=29.0 size=N/A time=00:08:29.70 bitrate=N/A speed=2.74x    frame=15360 fps= 82 q=29.0 size=N/A time=00:08:30.83 bitrate=N/A speed=2.74x    frame=15395 fps= 82 q=29.0 size=N/A time=00:08:32.00 bitrate=N/A speed=2.74x    frame=15424 fps= 82 q=29.0 size=N/A time=00:08:32.96 bitrate=N/A speed=2.74x    frame=15451 fps= 82 q=29.0 size=N/A time=00:08:33.86 bitrate=N/A speed=2.73x    frame=15491 fps= 82 q=29.0 size=N/A time=00:08:35.20 bitrate=N/A speed=2.73x    frame=15529 fps= 82 q=29.0 size=N/A time=00:08:36.46 bitrate=N/A speed=2.73x    frame=15564 fps= 82 q=29.0 size=N/A time=00:08:37.63 bitrate=N/A speed=2.73x    frame=15594 fps= 82 q=29.0 size=N/A time=00:08:38.63 bitrate=N/A speed=2.73x    frame=15629 fps= 82 q=29.0 size=N/A time=00:08:39.80 bitrate=N/A speed=2.73x    frame=15664 fps= 82 q=29.0 size=N/A time=00:08:40.96 bitrate=N/A speed=2.73x    frame=15694 fps= 82 q=29.0 size=N/A time=00:08:41.96 bitrate=N/A speed=2.73x    frame=15723 fps= 82 q=29.0 size=N/A time=00:08:42.93 bitrate=N/A speed=2.72x    frame=15758 fps= 82 q=29.0 size=N/A time=00:08:44.10 bitrate=N/A speed=2.72x    frame=15790 fps= 82 q=29.0 size=N/A time=00:08:45.16 bitrate=N/A speed=2.72x    frame=15825 fps= 82 q=29.0 size=N/A time=00:08:46.33 bitrate=N/A speed=2.72x    frame=15857 fps= 82 q=29.0 size=N/A time=00:08:47.40 bitrate=N/A speed=2.72x    frame=15890 fps= 82 q=29.0 size=N/A time=00:08:48.50 bitrate=N/A speed=2.72x    frame=15915 fps= 82 q=-1.0 Lsize=N/A time=00:08:50.40 bitrate=N/A speed=2.72x    
video:84209kB audio:0kB subtitle:0kB other streams:0kB global headers:0kB muxing overhead: unknown
[libx264 @ 0x577126df7640] frame I:64    Avg QP:21.57  size:122680
[libx264 @ 0x577126df7640] frame P:4474  Avg QP:25.52  size: 11324
[libx264 @ 0x577126df7640] frame B:11377 Avg QP:31.74  size:  2436
[libx264 @ 0x577126df7640] consecutive B-frames:  3.8%  1.3%  4.4% 90.5%
[libx264 @ 0x577126df7640] mb I  I16..4:  7.2% 16.0% 76.8%
[libx264 @ 0x577126df7640] mb P  I16..4:  0.7%  1.1%  1.6%  P16..4: 12.5%  4.6%  5.2%  0.0%  0.0%    skip:74.4%
[libx264 @ 0x577126df7640] mb B  I16..4:  0.1%  0.0%  0.1%  B16..8:  4.3%  2.8%  0.8%  direct: 1.1%  skip:90.8%  L0:39.1% L1:44.5% BI:16.4%
[libx264 @ 0x577126df7640] 8x8 transform intra:25.9% inter:23.9%
[libx264 @ 0x577126df7640] coded y,u,v intra: 76.0% 27.0% 19.0% inter: 4.2% 0.6% 0.5%
[libx264 @ 0x577126df7640] i16 v,h,dc,p: 30% 59%  6%  4%
[libx264 @ 0x577126df7640] i8 v,h,dc,ddl,ddr,vr,hd,vl,hu: 18% 44% 15%  3%  3%  3%  4%  3%  6%
[libx264 @ 0x577126df7640] i4 v,h,dc,ddl,ddr,vr,hd,vl,hu: 35% 30%  9%  4%  4%  5%  5%  4%  5%
[libx264 @ 0x577126df7640] Weighted P-Frames: Y:0.0% UV:0.0%
[libx264 @ 0x577126df7640] kb/s:1300.35
Starting pipeline in PROD mode
GStreamer RTSP server failed to start — will use external RTSP server if present
